<svg width="18" height="22" viewBox="0 0 18 22" fill="none" xmlns="http://www.w3.org/2000/svg">
<path d="M9 5H9.01M5.8 21H12.2C13.8802 21 14.7202 21 15.362 20.673C15.9265 20.3854 16.3854 19.9265 16.673 19.362C17 18.7202 17 17.8802 17 16.2V5.8C17 4.11984 17 3.27976 16.673 2.63803C16.3854 2.07354 15.9265 1.6146 15.362 1.32698C14.7202 1 13.8802 1 12.2 1H5.8C4.11984 1 3.27976 1 2.63803 1.32698C2.07354 1.6146 1.6146 2.07354 1.32698 2.63803C1 3.27976 1 4.11984 1 5.8V16.2C1 17.8802 1 18.7202 1.32698 19.362C1.6146 19.9265 2.07354 20.3854 2.63803 20.673C3.27976 21 4.11984 21 5.8 21ZM9.5 5C9.5 5.27614 9.27614 5.5 9 5.5C8.72386 5.5 8.5 5.27614 8.5 5C8.5 4.72386 8.72386 4.5 9 4.5C9.27614 4.5 9.5 4.72386 9.5 5ZM13 13C13 15.2091 11.2091 17 9 17C6.79086 17 5 15.2091 5 13C5 10.7909 6.79086 9 9 9C11.2091 9 13 10.7909 13 13Z" stroke="#334155" stroke-width="2" stroke-linecap="round" stroke-linejoin="round"/>
</svg>
